<svg id="SvgjsSvg1001" width="288" height="288" xmlns="http://www.w3.org/2000/svg" version="1.1" xmlns:xlink="http://www.w3.org/1999/xlink" xmlns:svgjs="http://svgjs.com/svgjs"><defs id="SvgjsDefs1002"></defs><g id="SvgjsG1008"><svg xmlns="http://www.w3.org/2000/svg" viewBox="0 0 500 500" width="288" height="288"><path fill="#e9f5fa" d="M0 0 C165 0 330 0 500 0 C500 165 500 330 500 500 C335 500 170 500 0 500 C0 335 0 170 0 0 Z " class="svgShape colorfaf2e9-0 selectable"></path><path fill="#e8f4f9" d="M0 0 C4.0670187 0.66400305 5.36270871 1.32910418 8.0625 4.5 C8.69936216 8.59827205 8.52970757 12.61533742 8.375 16.75 C8.271875 20.6275 8.16875 24.505 8.0625 28.5 C21.9225 28.5 35.7825 28.5 50.0625 28.5 C49.90458098 20.7811684 49.90458098 20.7811684 49.70214844 13.06347656 C49.6921582 12.09893555 49.68216797 11.13439453 49.671875 10.140625 C49.65092773 9.15610352 49.62998047 8.17158203 49.60839844 7.15722656 C50.19073873 3.74959662 51.36647052 2.59609891 54.0625 0.5 C57.61225338 -0.10421334 59.48633422 0.22707937 62.734375 1.765625 C66.52745365 6.22058314 65.58573283 11.11802529 65.375 16.75 C65.2203125 22.56625 65.2203125 22.56625 65.0625 28.5 C78.5925 28.5 92.1225 28.5 106.0625 28.5 C105.86508996 20.78084822 105.86508996 20.78084822 105.61206055 13.06347656 C105.50957206 5.14739804 105.50957206 5.14739804 108.39453125 1.76953125 C111.68856162 0.20209367 113.46092951 -0.17529447 117.0625 0.5 C119.73046875 2.296875 119.73046875 2.296875 122.0625 5.5 C122.68010427 9.45424709 122.53341994 13.32275481 122.375 17.3125 C122.34116211 18.92415039 122.34116211 18.92415039 122.30664062 20.56835938 C122.24785598 23.2136685 122.16573957 25.85611413 122.0625 28.5 C122.87291748 28.47381592 123.68333496 28.44763184 124.51831055 28.4206543 C127.59164559 28.33426937 130.66435252 28.27219847 133.73852539 28.2253418 C135.69655039 28.18850555 137.65401427 28.12489963 139.61132812 28.06054688 C152.68543564 27.89420963 162.91183291 31.44660652 172.6796875 40.046875 C182.84067334 50.50769321 183.38963142 62.17793189 183.1875 76.125 C183.17847656 77.31996094 183.16945313 78.51492187 183.16015625 79.74609375 C183.13681077 82.66427834 183.10406656 85.58202776 183.0625 88.5 C184.07618652 88.4685791 184.07618652 88.4685791 185.11035156 88.43652344 C188.17758254 88.35328357 191.24457582 88.30131534 194.3125 88.25 C195.37597656 88.21648437 196.43945312 88.18296875 197.53515625 88.1484375 C198.55996094 88.13554687 199.58476562 88.12265625 200.640625 88.109375 C202.05456543 88.0779541 202.05456543 88.0779541 203.49707031 88.04589844 C206.8372855 88.63714323 207.99339435 89.86626794 210.0625 92.5 C210.625 95.4375 210.625 95.4375 210.0625 98.5 C208.234375 101.171875 208.234375 101.171875 205.0625 103.5 C201.26867431 104.11463797 197.58034275 103.97057053 193.75 103.8125 C188.4596875 103.6578125 188.4596875 103.6578125 183.0625 103.5 C183.0625 116.7 183.0625 129.9 183.0625 143.5 C190.07814867 143.34230539 190.07814867 143.34230539 197.0925293 143.13964844 C201.52406894 143.08938676 204.31643454 143.07735208 208.234375 145.296875 C210.0625 147.5 210.0625 147.5 210.625 151 C209.97151142 155.06615114 209.24518589 156.00538948 206.0625 158.5 C203.49707031 158.95410156 203.49707031 158.95410156 200.640625 158.890625 C199.71668945 158.88063477 198.79275391 158.87064453 197.84082031 158.86035156 C196.67647461 158.82393555 195.51212891 158.78751953 194.3125 158.75 C188.74375 158.62625 188.74375 158.62625 183.0625 158.5 C183.0625 171.7 183.0625 184.9 183.0625 198.5 C190.12271486 198.42107439 190.12271486 198.42107439 197.18261719 198.31982422 C198.5076123 198.31233154 198.5076123 198.31233154 199.859375 198.3046875 C200.76010742 198.29421387 201.66083984 198.28374023 202.58886719 198.27294922 C205.23913824 198.51621334 206.83943041 199.05305028 209.0625 200.5 C209.8125 202.625 209.8125 202.625 210.0625 204.5 C216.12558638 199.33992649 222.24156452 194.07418712 227.35913086 187.94775391 C231.25185292 183.31236166 235.46797399 179.15559605 239.87109375 175.015625 C241.76686215 173.20972271 243.66037818 171.40148439 245.5534668 169.59277344 C246.85422812 168.36134907 248.16457202 167.1399708 249.48413086 165.92871094 C257.3938881 159.15479235 257.3938881 159.15479235 261.77709961 150.12670898 C261.73056675 146.98214074 261.73056675 146.98214074 261.3112793 144.01416016 C261.0625 141.5 261.0625 141.5 262.63671875 138.31640625 C263.33410156 137.57261719 264.03148437 136.82882813 264.75 136.0625 C265.84828125 134.85400391 265.84828125 134.85400391 266.96875 133.62109375 C267.6596875 132.92113281 268.350625 132.22117188 269.0625 131.5 C269.949375 130.55125 270.83625 129.6025 271.75 128.625 C274.0625 126.5 274.0625 126.5 276.6875 124.4375 C279.11921298 122.61236392 279.11921298 122.61236392 280.75 120.25 C281.183125 119.6725 281.61625 119.095 282.0625 118.5 C282.7225 118.5 283.3825 118.5 284.0625 118.5 C284.31 117.88125 284.5575 117.2625 284.8125 116.625 C286.29990369 114.09641373 287.49928009 113.78160996 290.0625 112.5 C290.45115234 111.65308594 290.45115234 111.65308594 290.84765625 110.7890625 C292.52639599 107.62590658 294.96268547 105.34946058 297.5 102.875 C298.23573242 102.14023438 298.23573242 102.14023438 298.98632812 101.390625 C302.73673007 97.6857745 305.380911 95.19879005 310.75 94.9375 C311.55824219 94.87433594 312.36648438 94.81117188 313.19921875 94.74609375 C317.84361275 95.96896966 320.63531924 99.25095099 324.0625 102.5 C324.89225342 103.23951904 325.72200684 103.97903809 326.5769043 104.7409668 C329.28256147 107.15858062 331.92317472 109.63528763 334.5625 112.125 C335.4803125 112.93839844 336.398125 113.75179687 337.34375 114.58984375 C338.21 115.41871094 339.07625 116.24757813 339.96875 117.1015625 C341.14920898 118.18945068 341.14920898 118.18945068 342.35351562 119.29931641 C345.20205801 124.63422935 345.33184879 129.62603942 344.0625 135.5 C341.48599238 139.781567 338.14592847 142.96461755 334.5078125 146.359375 C333.52335308 147.32207604 332.54169472 148.28764893 331.56271362 149.25592041 C328.99718779 151.77781568 326.3946825 154.25782922 323.78234863 156.7310791 C321.12291719 159.26390003 318.5034231 161.83736071 315.87890625 164.40625 C299.44739353 180.43047723 299.44739353 180.43047723 296.1171875 180.59765625 C294.09895833 180.56510417 292.08072917 180.53255208 290.0625 180.5 C290.0625 181.16 290.0625 181.82 290.0625 182.5 C286.97186578 185.85554573 283.6157116 188.65743072 280.0625 191.5 C276.8724825 194.5127943 273.96389671 197.7283282 271.05569458 201.0085144 C266.02537484 206.60462207 260.75544361 211.93425899 255.42138672 217.23876953 C254.38687036 218.27136096 253.3525857 219.30418455 252.31851196 220.33721924 C250.11182098 222.54077751 247.9035938 224.74277986 245.6941185 226.9435463 C242.19375773 230.43025213 238.69733308 233.92088783 235.20144653 237.41207886 C227.7831097 244.81937323 220.36052967 252.22240888 212.9375 259.625 C204.91372507 267.62669727 196.89071245 275.6291505 188.87257969 283.63650215 C185.40366753 287.10046069 181.93233941 290.56197349 178.4590795 294.02157235 C176.29385088 296.17929655 174.13073665 298.33913118 171.96816635 300.49951935 C170.97220536 301.49362227 169.97538744 302.48686759 168.97760773 303.47914505 C163.97708075 308.4529817 159.10646147 313.46799643 154.51258087 318.82113838 C152.72994637 320.88502096 150.85710114 322.8390261 148.93481445 324.77294922 C148.20748611 325.50665741 147.48015778 326.2403656 146.73078918 326.99630737 C145.97013657 327.75807281 145.20948395 328.51983826 144.42578125 329.3046875 C143.62391891 330.10987823 142.82205658 330.91506897 141.99589539 331.74465942 C140.31391995 333.43166406 138.63061765 335.11734673 136.94604492 336.80175781 C134.36674326 339.3832638 131.79556685 341.97268704 129.22460938 344.5625 C127.58382272 346.20621783 125.9425633 347.84946389 124.30078125 349.4921875 C123.53405594 350.26609833 122.76733063 351.04000916 121.97737122 351.83737183 C121.25949936 352.55216705 120.5416275 353.26696228 119.80200195 354.00341797 C119.17469681 354.63214813 118.54739166 355.2608783 117.90107727 355.90866089 C113.64667476 359.59096308 109.92953599 359.94880358 104.453125 359.8046875 C98.68188917 359.06913784 95.31733306 353.71006422 91.77734375 349.50390625 C90.13861226 347.53144214 90.13861226 347.53144214 88.50390625 345.96484375 C85.78985464 343.20466095 84.64213298 340.90608413 84.3125 337.125 C84.61150295 333.38294524 85.48724259 331.55243542 88.01953125 328.8046875 C88.6522998 328.11552246 89.28506836 327.42635742 89.93701172 326.71630859 C93.73651429 322.7544565 97.59816435 318.86096227 101.5 315 C102.32693359 314.17757813 103.15386719 313.35515625 104.00585938 312.5078125 C106.02244959 310.50287887 108.04135236 308.50033747 110.0625 306.5 C108.91076645 304.03199953 108.01466435 302.45216435 106.0625 300.5 C105.83544922 298.16162109 105.83544922 298.16162109 105.8671875 295.2734375 C105.87218262 294.34450684 105.87717773 293.41557617 105.88232422 292.45849609 C105.90053223 291.27594238 105.91874023 290.09338867 105.9375 288.875 C105.97875 285.12125 106.02 281.3675 106.0625 277.5 C92.5325 277.5 79.0025 277.5 65.0625 277.5 C65.25971536 285.17412001 65.25971536 285.17412001 65.51293945 292.84643555 C65.61529817 300.73201866 65.61529817 300.73201866 62.734375 304.734375 C59.46859761 306.89246181 57.90110919 307.23505282 54.0625 306.5 C51.30930214 304.37190631 50.18238429 303.22575113 49.60839844 299.75097656 C49.6293457 298.72456055 49.65029297 297.69814453 49.671875 296.640625 C49.68186523 295.63547852 49.69185547 294.63033203 49.70214844 293.59472656 C49.73856445 292.3259668 49.77498047 291.05720703 49.8125 289.75 C49.895 285.7075 49.9775 281.665 50.0625 277.5 C36.2025 277.5 22.3425 277.5 8.0625 277.5 C8.18093401 285.21858238 8.18093401 285.21858238 8.33276367 292.93652344 C8.34025635 293.90106445 8.34774902 294.86560547 8.35546875 295.859375 C8.3711792 296.84389648 8.38688965 297.82841797 8.40307617 298.84277344 C8.00758105 301.92848588 7.19897779 303.27272514 5.0625 305.5 C2.94140625 306.06640625 2.94140625 306.06640625 0.625 306.0625 C-0.13683594 306.08441406 -0.89867187 306.10632813 -1.68359375 306.12890625 C-3.9375 305.5 -3.9375 305.5 -6.20703125 303.703125 C-8.85342228 298.80461338 -8.3612059 294.15589537 -8.1875 288.6875 C-8.16945313 287.61306641 -8.15140625 286.53863281 -8.1328125 285.43164062 C-8.08579392 282.78684535 -8.0200916 280.14388411 -7.9375 277.5 C-8.7939209 277.52094727 -9.6503418 277.54189453 -10.53271484 277.56347656 C-13.75695709 277.63227201 -16.98082119 277.68209826 -20.20556641 277.71972656 C-21.59241156 277.73965342 -22.97917482 277.7668056 -24.36572266 277.80175781 C-36.88716298 278.10914335 -47.25512661 275.89139028 -56.9375 267.5 C-67.49226603 255.93287631 -69.57694774 244.00459455 -69.1875 228.75 C-69.16737462 227.35940115 -69.14913467 225.96877369 -69.1328125 224.578125 C-69.08614406 221.21799763 -69.02068484 217.85938778 -68.9375 214.5 C-69.61329102 214.52094727 -70.28908203 214.54189453 -70.98535156 214.56347656 C-74.05258254 214.64671643 -77.11957582 214.69868466 -80.1875 214.75 C-81.25097656 214.78351563 -82.31445312 214.81703125 -83.41015625 214.8515625 C-84.43496094 214.86445313 -85.45976563 214.87734375 -86.515625 214.890625 C-87.45825195 214.91157227 -88.40087891 214.93251953 -89.37207031 214.95410156 C-92.69737649 214.36549579 -93.85500123 213.09795393 -95.9375 210.5 C-96.50390625 208.24609375 -96.50390625 208.24609375 -96.5 205.9375 C-96.53287109 204.79087891 -96.53287109 204.79087891 -96.56640625 203.62109375 C-95.9375 201.5 -95.9375 201.5 -94.109375 199.734375 C-89.3095975 197.86648129 -84.72022897 198.1863381 -79.625 198.3125 C-76.098125 198.374375 -72.57125 198.43625 -68.9375 198.5 C-68.9375 185.3 -68.9375 172.1 -68.9375 158.5 C-76.32725617 158.65789349 -76.32725617 158.65789349 -83.71582031 158.86035156 C-84.63975586 158.8703418 -85.56369141 158.88033203 -86.515625 158.890625 C-87.45825195 158.91157227 -88.40087891 158.93251953 -89.37207031 158.95410156 C-92.72560767 158.36049864 -93.88129329 157.16606837 -95.9375 154.5 C-96.4375 151 -96.4375 151 -95.9375 147.5 C-93.88129329 144.83393163 -92.72560767 143.63950136 -89.37207031 143.04589844 C-88.42944336 143.0668457 -87.48681641 143.08779297 -86.515625 143.109375 C-85.59168945 143.11936523 -84.66775391 143.12935547 -83.71582031 143.13964844 C-82.55147461 143.17606445 -81.38712891 143.21248047 -80.1875 143.25 C-74.61875 143.37375 -74.61875 143.37375 -68.9375 143.5 C-68.9375 130.3 -68.9375 117.1 -68.9375 103.5 C-76.7013679 103.65807276 -76.7013679 103.65807276 -84.46411133 103.86035156 C-85.4311499 103.8703418 -86.39818848 103.88033203 -87.39453125 103.890625 C-88.8791687 103.9220459 -88.8791687 103.9220459 -90.39379883 103.95410156 C-92.9375 103.5 -92.9375 103.5 -94.7590332 101.6027832 C-96.74984854 98.05049556 -96.32157197 95.5327557 -95.9375 91.5 C-94.76049805 89.7722168 -94.76049805 89.7722168 -92.9375 88.5 C-90.39379883 88.15942383 -90.39379883 88.15942383 -87.39453125 88.20703125 C-85.78481445 88.2215332 -85.78481445 88.2215332 -84.14257812 88.23632812 C-83.02302734 88.26146484 -81.90347656 88.28660156 -80.75 88.3125 C-79.61884766 88.32603516 -78.48769531 88.33957031 -77.32226562 88.35351562 C-74.52686683 88.38890042 -71.73242108 88.43827052 -68.9375 88.5 C-68.95321045 87.70416504 -68.9689209 86.90833008 -68.98510742 86.08837891 C-69.04800425 82.43399343 -69.08666375 78.77972239 -69.125 75.125 C-69.15013672 73.87332031 -69.17527344 72.62164062 -69.20117188 71.33203125 C-69.2979732 59.0059953 -67.1418567 49.91810984 -58.9375 40.5 C-51.95201477 33.79894007 -44.72097006 29.15682081 -34.84729004 29.16011047 C-34.14487183 29.17559433 -33.44245361 29.19107819 -32.71875 29.20703125 C-31.97540405 29.21127609 -31.23205811 29.21552094 -30.46618652 29.21989441 C-28.12290142 29.23650919 -25.78051923 29.27412546 -23.4375 29.3125 C-21.83595004 29.32756922 -20.23438642 29.34125368 -18.6328125 29.35351562 C-14.73403417 29.38635574 -10.83591944 29.43801437 -6.9375 29.5 C-6.9689209 28.39543457 -6.9689209 28.39543457 -7.00097656 27.26855469 C-7.08417144 23.92917558 -7.13617157 20.59001451 -7.1875 17.25 C-7.22101563 16.09113281 -7.25453125 14.93226562 -7.2890625 13.73828125 C-7.30839844 12.06572266 -7.30839844 12.06572266 -7.328125 10.359375 C-7.3595459 8.81975098 -7.3595459 8.81975098 -7.39160156 7.24902344 C-6.64849266 2.75041794 -4.43107761 0.75422598 0 0 Z " transform="translate(138.938 110.5)" class="svgShape colorf9f1e8-1 selectable"></path><path fill="#183540" d="M0 0 C4.0670187 0.66400305 5.36270871 1.32910418 8.0625 4.5 C8.69936216 8.59827205 8.52970757 12.61533742 8.375 16.75 C8.271875 20.6275 8.16875 24.505 8.0625 28.5 C21.9225 28.5 35.7825 28.5 50.0625 28.5 C49.90458098 20.7811684 49.90458098 20.7811684 49.70214844 13.06347656 C49.6921582 12.09893555 49.68216797 11.13439453 49.671875 10.140625 C49.65092773 9.15610352 49.62998047 8.17158203 49.60839844 7.15722656 C50.19073873 3.74959662 51.36647052 2.59609891 54.0625 0.5 C57.61225338 -0.10421334 59.48633422 0.22707937 62.734375 1.765625 C66.52745365 6.22058314 65.58573283 11.11802529 65.375 16.75 C65.2203125 22.56625 65.2203125 22.56625 65.0625 28.5 C78.5925 28.5 92.1225 28.5 106.0625 28.5 C105.86508996 20.78084822 105.86508996 20.78084822 105.61206055 13.06347656 C105.50957206 5.14739804 105.50957206 5.14739804 108.39453125 1.76953125 C111.68856162 0.20209367 113.46092951 -0.17529447 117.0625 0.5 C119.73046875 2.296875 119.73046875 2.296875 122.0625 5.5 C122.68010427 9.45424709 122.53341994 13.32275481 122.375 17.3125 C122.34116211 18.92415039 122.34116211 18.92415039 122.30664062 20.56835938 C122.24785598 23.2136685 122.16573957 25.85611413 122.0625 28.5 C122.87291748 28.47381592 123.68333496 28.44763184 124.51831055 28.4206543 C127.59164559 28.33426937 130.66435252 28.27219847 133.73852539 28.2253418 C135.69655039 28.18850555 137.65401427 28.12489963 139.61132812 28.06054688 C152.68543564 27.89420963 162.91183291 31.44660652 172.6796875 40.046875 C182.84067334 50.50769321 183.38963142 62.17793189 183.1875 76.125 C183.17847656 77.31996094 183.16945313 78.51492187 183.16015625 79.74609375 C183.13681077 82.66427834 183.10406656 85.58202776 183.0625 88.5 C184.07618652 88.4685791 184.07618652 88.4685791 185.11035156 88.43652344 C188.17758254 88.35328357 191.24457582 88.30131534 194.3125 88.25 C195.37597656 88.21648437 196.43945312 88.18296875 197.53515625 88.1484375 C198.55996094 88.13554687 199.58476562 88.12265625 200.640625 88.109375 C202.05456543 88.0779541 202.05456543 88.0779541 203.49707031 88.04589844 C206.8372855 88.63714323 207.99339435 89.86626794 210.0625 92.5 C210.625 95.4375 210.625 95.4375 210.0625 98.5 C208.234375 101.171875 208.234375 101.171875 205.0625 103.5 C201.26867431 104.11463797 197.58034275 103.97057053 193.75 103.8125 C188.4596875 103.6578125 188.4596875 103.6578125 183.0625 103.5 C183.0625 116.7 183.0625 129.9 183.0625 143.5 C190.07814867 143.34230539 190.07814867 143.34230539 197.0925293 143.13964844 C201.52406894 143.08938676 204.31643454 143.07735208 208.234375 145.296875 C210.0625 147.5 210.0625 147.5 210.625 151 C209.97151142 155.06615114 209.24518589 156.00538948 206.0625 158.5 C203.49707031 158.95410156 203.49707031 158.95410156 200.640625 158.890625 C199.71668945 158.88063477 198.79275391 158.87064453 197.84082031 158.86035156 C196.67647461 158.82393555 195.51212891 158.78751953 194.3125 158.75 C188.74375 158.62625 188.74375 158.62625 183.0625 158.5 C183.0625 171.7 183.0625 184.9 183.0625 198.5 C190.12271486 198.42107439 190.12271486 198.42107439 197.18261719 198.31982422 C198.5076123 198.31233154 198.5076123 198.31233154 199.859375 198.3046875 C200.76010742 198.29421387 201.66083984 198.28374023 202.58886719 198.27294922 C205.23913824 198.51621334 206.83943041 199.05305028 209.0625 200.5 C209.8125 202.625 209.8125 202.625 210.0625 204.5 C216.12558638 199.33992649 222.24156452 194.07418712 227.35913086 187.94775391 C231.25185292 183.31236166 235.46797399 179.15559605 239.87109375 175.015625 C241.76686215 173.20972271 243.66037818 171.40148439 245.5534668 169.59277344 C246.85422812 168.36134907 248.16457202 167.1399708 249.48413086 165.92871094 C257.3938881 159.15479235 257.3938881 159.15479235 261.77709961 150.12670898 C261.73056675 146.98214074 261.73056675 146.98214074 261.3112793 144.01416016 C261.0625 141.5 261.0625 141.5 262.63671875 138.31640625 C263.33410156 137.57261719 264.03148437 136.82882813 264.75 136.0625 C265.84828125 134.85400391 265.84828125 134.85400391 266.96875 133.62109375 C267.6596875 132.92113281 268.350625 132.22117188 269.0625 131.5 C269.949375 130.55125 270.83625 129.6025 271.75 128.625 C274.0625 126.5 274.0625 126.5 276.6875 124.4375 C279.11921298 122.61236392 279.11921298 122.61236392 280.75 120.25 C281.183125 119.6725 281.61625 119.095 282.0625 118.5 C282.7225 118.5 283.3825 118.5 284.0625 118.5 C284.31 117.88125 284.5575 117.2625 284.8125 116.625 C286.29990369 114.09641373 287.49928009 113.78160996 290.0625 112.5 C290.45115234 111.65308594 290.45115234 111.65308594 290.84765625 110.7890625 C292.52639599 107.62590658 294.96268547 105.34946058 297.5 102.875 C298.23573242 102.14023438 298.23573242 102.14023438 298.98632812 101.390625 C302.73673007 97.6857745 305.380911 95.19879005 310.75 94.9375 C311.55824219 94.87433594 312.36648438 94.81117188 313.19921875 94.74609375 C317.84361275 95.96896966 320.63531924 99.25095099 324.0625 102.5 C324.89225342 103.23951904 325.72200684 103.97903809 326.5769043 104.7409668 C329.28256147 107.15858062 331.92317472 109.63528763 334.5625 112.125 C335.4803125 112.93839844 336.398125 113.75179687 337.34375 114.58984375 C338.21 115.41871094 339.07625 116.24757813 339.96875 117.1015625 C341.14920898 118.18945068 341.14920898 118.18945068 342.35351562 119.29931641 C345.20205801 124.63422935 345.33184879 129.62603942 344.0625 135.5 C341.48599238 139.781567 338.14592847 142.96461755 334.5078125 146.359375 C333.52335308 147.32207604 332.54169472 148.28764893 331.56271362 149.25592041 C328.99718779 151.77781568 326.3946825 154.25782922 323.78234863 156.7310791 C321.12291719 159.26390003 318.5034231 161.83736071 315.87890625 164.40625 C299.44739353 180.43047723 299.44739353 180.43047723 296.1171875 180.59765625 C294.09895833 180.56510417 292.08072917 180.53255208 290.0625 180.5 C290.0625 181.16 290.0625 181.82 290.0625 182.5 C286.97186578 185.85554573 283.6157116 188.65743072 280.0625 191.5 C276.8724825 194.5127943 273.96389671 197.7283282 271.05569458 201.0085144 C266.02537484 206.60462207 260.75544361 211.93425899 255.42138672 217.23876953 C254.38687036 218.27136096 253.3525857 219.30418455 252.31851196 220.33721924 C250.11182098 222.54077751 247.9035938 224.74277986 245.6941185 226.9435463 C242.19375773 230.43025213 238.69733308 233.92088783 235.20144653 237.41207886 C227.7831097 244.81937323 220.36052967 252.22240888 212.9375 259.625 C204.91372507 267.62669727 196.89071245 275.6291505 188.87257969 283.63650215 C185.40366753 287.10046069 181.93233941 290.56197349 178.4590795 294.02157235 C176.29385088 296.17929655 174.13073665 298.33913118 171.96816635 300.49951935 C170.97220536 301.49362227 169.97538744 302.48686759 168.97760773 303.47914505 C163.97708075 308.4529817 159.10646147 313.46799643 154.51258087 318.82113838 C152.72994637 320.88502096 150.85710114 322.8390261 148.93481445 324.77294922 C148.20748611 325.50665741 147.48015778 326.2403656 146.73078918 326.99630737 C145.97013657 327.75807281 145.20948395 328.51983826 144.42578125 329.3046875 C143.62391891 330.10987823 142.82205658 330.91506897 141.99589539 331.74465942 C140.31391995 333.43166406 138.63061765 335.11734673 136.94604492 336.80175781 C134.36674326 339.3832638 131.79556685 341.97268704 129.22460938 344.5625 C127.58382272 346.20621783 125.9425633 347.84946389 124.30078125 349.4921875 C123.53405594 350.26609833 122.76733063 351.04000916 121.97737122 351.83737183 C121.25949936 352.55216705 120.5416275 353.26696228 119.80200195 354.00341797 C119.17469681 354.63214813 118.54739166 355.2608783 117.90107727 355.90866089 C113.64667476 359.59096308 109.92953599 359.94880358 104.453125 359.8046875 C98.68188917 359.06913784 95.31733306 353.71006422 91.77734375 349.50390625 C90.13861226 347.53144214 90.13861226 347.53144214 88.50390625 345.96484375 C85.78985464 343.20466095 84.64213298 340.90608413 84.3125 337.125 C84.61150295 333.38294524 85.48724259 331.55243542 88.01953125 328.8046875 C88.6522998 328.11552246 89.28506836 327.42635742 89.93701172 326.71630859 C93.73651429 322.7544565 97.59816435 318.86096227 101.5 315 C102.32693359 314.17757813 103.15386719 313.35515625 104.00585938 312.5078125 C106.02244959 310.50287887 108.04135236 308.50033747 110.0625 306.5 C108.91076645 304.03199953 108.01466435 302.45216435 106.0625 300.5 C105.83544922 298.16162109 105.83544922 298.16162109 105.8671875 295.2734375 C105.87218262 294.34450684 105.87717773 293.41557617 105.88232422 292.45849609 C105.90053223 291.27594238 105.91874023 290.09338867 105.9375 288.875 C105.97875 285.12125 106.02 281.3675 106.0625 277.5 C92.5325 277.5 79.0025 277.5 65.0625 277.5 C65.25971536 285.17412001 65.25971536 285.17412001 65.51293945 292.84643555 C65.61529817 300.73201866 65.61529817 300.73201866 62.734375 304.734375 C59.46859761 306.89246181 57.90110919 307.23505282 54.0625 306.5 C51.30930214 304.37190631 50.18238429 303.22575113 49.60839844 299.75097656 C49.6293457 298.72456055 49.65029297 297.69814453 49.671875 296.640625 C49.68186523 295.63547852 49.69185547 294.63033203 49.70214844 293.59472656 C49.73856445 292.3259668 49.77498047 291.05720703 49.8125 289.75 C49.895 285.7075 49.9775 281.665 50.0625 277.5 C36.2025 277.5 22.3425 277.5 8.0625 277.5 C8.18093401 285.21858238 8.18093401 285.21858238 8.33276367 292.93652344 C8.34025635 293.90106445 8.34774902 294.86560547 8.35546875 295.859375 C8.3711792 296.84389648 8.38688965 297.82841797 8.40307617 298.84277344 C8.00758105 301.92848588 7.19897779 303.27272514 5.0625 305.5 C2.94140625 306.06640625 2.94140625 306.06640625 0.625 306.0625 C-0.13683594 306.08441406 -0.89867187 306.10632813 -1.68359375 306.12890625 C-3.9375 305.5 -3.9375 305.5 -6.20703125 303.703125 C-8.85342228 298.80461338 -8.3612059 294.15589537 -8.1875 288.6875 C-8.16945313 287.61306641 -8.15140625 286.53863281 -8.1328125 285.43164062 C-8.08579392 282.78684535 -8.0200916 280.14388411 -7.9375 277.5 C-8.7939209 277.52094727 -9.6503418 277.54189453 -10.53271484 277.56347656 C-13.75695709 277.63227201 -16.98082119 277.68209826 -20.20556641 277.71972656 C-21.59241156 277.73965342 -22.97917482 277.7668056 -24.36572266 277.80175781 C-36.88716298 278.10914335 -47.25512661 275.89139028 -56.9375 267.5 C-67.49226603 255.93287631 -69.57694774 244.00459455 -69.1875 228.75 C-69.16737462 227.35940115 -69.14913467 225.96877369 -69.1328125 224.578125 C-69.08614406 221.21799763 -69.02068484 217.85938778 -68.9375 214.5 C-69.61329102 214.52094727 -70.28908203 214.54189453 -70.98535156 214.56347656 C-74.05258254 214.64671643 -77.11957582 214.69868466 -80.1875 214.75 C-81.25097656 214.78351563 -82.31445312 214.81703125 -83.41015625 214.8515625 C-84.43496094 214.86445313 -85.45976563 214.87734375 -86.515625 214.890625 C-87.45825195 214.91157227 -88.40087891 214.93251953 -89.37207031 214.95410156 C-92.69737649 214.36549579 -93.85500123 213.09795393 -95.9375 210.5 C-96.50390625 208.24609375 -96.50390625 208.24609375 -96.5 205.9375 C-96.53287109 204.79087891 -96.53287109 204.79087891 -96.56640625 203.62109375 C-95.9375 201.5 -95.9375 201.5 -94.109375 199.734375 C-89.3095975 197.86648129 -84.72022897 198.1863381 -79.625 198.3125 C-76.098125 198.374375 -72.57125 198.43625 -68.9375 198.5 C-68.9375 185.3 -68.9375 172.1 -68.9375 158.5 C-76.32725617 158.65789349 -76.32725617 158.65789349 -83.71582031 158.86035156 C-84.63975586 158.8703418 -85.56369141 158.88033203 -86.515625 158.890625 C-87.45825195 158.91157227 -88.40087891 158.93251953 -89.37207031 158.95410156 C-92.72560767 158.36049864 -93.88129329 157.16606837 -95.9375 154.5 C-96.4375 151 -96.4375 151 -95.9375 147.5 C-93.88129329 144.83393163 -92.72560767 143.63950136 -89.37207031 143.04589844 C-88.42944336 143.0668457 -87.48681641 143.08779297 -86.515625 143.109375 C-85.59168945 143.11936523 -84.66775391 143.12935547 -83.71582031 143.13964844 C-82.55147461 143.17606445 -81.38712891 143.21248047 -80.1875 143.25 C-74.61875 143.37375 -74.61875 143.37375 -68.9375 143.5 C-68.9375 130.3 -68.9375 117.1 -68.9375 103.5 C-76.7013679 103.65807276 -76.7013679 103.65807276 -84.46411133 103.86035156 C-85.4311499 103.8703418 -86.39818848 103.88033203 -87.39453125 103.890625 C-88.8791687 103.9220459 -88.8791687 103.9220459 -90.39379883 103.95410156 C-92.9375 103.5 -92.9375 103.5 -94.7590332 101.6027832 C-96.74984854 98.05049556 -96.32157197 95.5327557 -95.9375 91.5 C-94.76049805 89.7722168 -94.76049805 89.7722168 -92.9375 88.5 C-90.39379883 88.15942383 -90.39379883 88.15942383 -87.39453125 88.20703125 C-85.78481445 88.2215332 -85.78481445 88.2215332 -84.14257812 88.23632812 C-83.02302734 88.26146484 -81.90347656 88.28660156 -80.75 88.3125 C-79.61884766 88.32603516 -78.48769531 88.33957031 -77.32226562 88.35351562 C-74.52686683 88.38890042 -71.73242108 88.43827052 -68.9375 88.5 C-68.95321045 87.70416504 -68.9689209 86.90833008 -68.98510742 86.08837891 C-69.04800425 82.43399343 -69.08666375 78.77972239 -69.125 75.125 C-69.15013672 73.87332031 -69.17527344 72.62164062 -69.20117188 71.33203125 C-69.2979732 59.0059953 -67.1418567 49.91810984 -58.9375 40.5 C-51.95201477 33.79894007 -44.72097006 29.15682081 -34.84729004 29.16011047 C-34.14487183 29.17559433 -33.44245361 29.19107819 -32.71875 29.20703125 C-31.97540405 29.21127609 -31.23205811 29.21552094 -30.46618652 29.21989441 C-28.12290142 29.23650919 -25.78051923 29.27412546 -23.4375 29.3125 C-21.83595004 29.32756922 -20.23438642 29.34125368 -18.6328125 29.35351562 C-14.73403417 29.38635574 -10.83591944 29.43801437 -6.9375 29.5 C-6.9689209 28.39543457 -6.9689209 28.39543457 -7.00097656 27.26855469 C-7.08417144 23.92917558 -7.13617157 20.59001451 -7.1875 17.25 C-7.22101563 16.09113281 -7.25453125 14.93226562 -7.2890625 13.73828125 C-7.30839844 12.06572266 -7.30839844 12.06572266 -7.328125 10.359375 C-7.3595459 8.81975098 -7.3595459 8.81975098 -7.39160156 7.24902344 C-6.64849266 2.75041794 -4.43107761 0.75422598 0 0 Z M-50.28316307 53.11834717 C-55.43348383 60.86278311 -54.64035035 69.53246362 -54.58447266 78.453125 C-54.59125545 80.27234775 -54.60016229 82.09156363 -54.61102295 83.9107666 C-54.63374416 88.83234109 -54.62500965 93.75338929 -54.60912752 98.67497253 C-54.59643128 103.83573785 -54.60821897 108.99645939 -54.61605835 114.15722656 C-54.62514407 122.82234756 -54.61319526 131.48725518 -54.58935547 140.15234375 C-54.56214633 150.15736619 -54.57096125 160.1618791 -54.5984875 170.16688919 C-54.62120825 178.77100599 -54.62436413 187.37496978 -54.61129415 195.9791069 C-54.60351597 201.11184791 -54.6024131 206.24434974 -54.61897659 211.3770752 C-54.63346527 216.20362593 -54.62331944 221.02952244 -54.59450531 225.85600281 C-54.58791795 227.62280697 -54.58975178 229.38966659 -54.60081863 231.15644836 C-54.65718468 241.07248882 -54.65133367 249.45949279 -47.45955849 257.06243896 C-42.17130265 261.83996532 -37.22023303 262.79780533 -30.30427551 262.77415466 C-29.54343476 262.77939134 -28.782594 262.78462802 -27.99869746 262.79002339 C-25.45326115 262.805006 -22.90802618 262.80572816 -20.36254883 262.80639648 C-18.53569195 262.81401926 -16.70883828 262.82244697 -14.88198853 262.83161926 C-9.92102138 262.85356239 -4.96011588 262.8623632 0.00089431 262.86744571 C3.10244905 262.8710902 6.20398767 262.87733083 9.30553627 262.8844471 C20.13216485 262.9089432 30.95874552 262.92199336 41.78540039 262.92553711 C51.86639517 262.9291701 61.94708507 262.95904819 72.02798671 263.00094169 C80.69060308 263.03567498 89.35311859 263.0510861 98.01580411 263.05178314 C103.18612632 263.05257507 108.3561381 263.06127466 113.52638817 263.08978081 C118.39304151 263.11601265 123.25912821 263.11813807 128.12582016 263.10212517 C129.90673753 263.10031461 131.68768786 263.10696571 133.46853447 263.12294388 C144.23320348 263.21359696 153.02952778 262.77885069 161.5 255.3671875 C162.015625 254.70976562 162.53125 254.05234375 163.0625 253.375 C163.59875 252.71242188 164.135 252.04984375 164.6875 251.3671875 C167.86151767 247.05701577 168.35429965 244.30612613 168.33665466 239.09382629 C168.34189134 238.33328325 168.34712802 237.57274022 168.35252339 236.78915042 C168.36756184 234.23283464 168.36822938 231.67671836 168.36889648 229.12036133 C168.37651556 227.29055441 168.38494262 225.4607507 168.39411926 223.63095093 C168.4161001 218.6534713 168.42486835 213.67605312 168.42994571 208.69853044 C168.43358603 205.58862657 168.43982449 202.47873888 168.4469471 199.36884117 C168.47145717 188.51859198 168.48449618 177.66839069 168.48803711 166.81811523 C168.49167027 156.70644879 168.52154596 146.59508628 168.56344169 136.4835127 C168.59814906 127.80228441 168.61358565 119.12115677 168.61428314 110.43985957 C168.61507601 105.25504015 168.62381885 100.07052995 168.65228081 94.88578224 C168.67846789 90.00602952 168.68066298 85.12684219 168.66462517 80.24705124 C168.662811 78.45884531 168.6694985 76.67060684 168.68544388 74.88247108 C169.04978679 62.23228114 169.04978679 62.23228114 163.0625 51.5 C162.32 50.571875 161.5775 49.64375 160.8125 48.6875 C152.31693945 41.92966774 141.52999569 43.07288855 131.27709961 43.11181641 C129.47596418 43.10774668 127.67483124 43.10240256 125.873703 43.09588623 C121.00189061 43.08225551 116.13026965 43.08749346 111.25845408 43.09702349 C106.1506149 43.10464094 101.04279164 43.0975688 95.93495178 43.09286499 C87.35984364 43.08741401 78.78481314 43.09458233 70.2097168 43.10888672 C60.3058958 43.12521715 50.40226006 43.11991919 40.49844354 43.1034075 C31.9826925 43.08978013 23.46699712 43.08787894 14.95123869 43.09572351 C9.87056255 43.10039247 4.7899734 43.10104615 -0.2906971 43.09111404 C-5.06702381 43.08242828 -9.84311231 43.08849571 -14.61941338 43.10579681 C-16.36890645 43.10975283 -18.11841969 43.10864281 -19.86790466 43.10200882 C-22.26242903 43.09376811 -24.65619775 43.10414457 -27.05067444 43.11904907 C-27.73716712 43.11235691 -28.42365979 43.10566474 -29.13095528 43.09876978 C-37.79695018 43.20285975 -44.75735069 46.47278855 -50.28316307 53.11834717 Z " transform="translate(138.938 110.5)" class="svgShape color182d40-2 selectable"></path><path fill="#16333e" d="M0 0 C3.17847058 0.65964845 3.17847058 0.65964845 6.16015625 -0.578125 C19.27833799 -1.64364975 30.94945557 0.81841424 41.16015625 9.421875 C48.84183434 16.93372007 48.84183434 16.93372007 49.62890625 20.61328125 C49.80421875 21.21011719 49.97953125 21.80695313 50.16015625 22.421875 C51.94709403 23.31154425 51.94709403 23.31154425 54.16015625 23.734375 C63.53010212 26.54535876 68.81751053 32.64602613 73.84765625 40.7734375 C76.22793825 45.57650653 76.18118835 49.819256 76.22265625 55.109375 C76.64641743 61.9972898 78.6666202 65.06988109 83.21484375 70.06640625 C87.97513656 75.83037526 88.73225472 83.27821222 88.515625 90.55078125 C87.72484647 96.9378386 85.87676951 103.12161324 82.01171875 108.30078125 C79.67118583 112.24610995 79.93656359 114.51517039 80.28515625 119.046875 C80.64304189 128.32946699 77.94331549 134.69472746 72.109375 141.984375 C65.97041576 148.61401482 59.14739998 152.3108665 50.53515625 154.796875 C46.99468426 155.88195836 44.91153156 157.32137847 42.22265625 159.859375 C35.005699 166.52552729 27.57737997 167.97962288 17.93066406 167.90576172 C12.31765301 167.68183127 8.84372036 166.39413684 4.16015625 163.421875 C2.24549568 162.54867283 2.24549568 162.54867283 0.16015625 162.421875 C-1.90345612 163.41334164 -1.90345612 163.41334164 -4.02734375 164.859375 C-11.8005259 168.98815721 -21.16288664 168.70737443 -29.6171875 166.79296875 C-35.54039197 164.47157227 -40.57718605 160.07754369 -44.83984375 155.421875 C-44.83984375 154.761875 -44.83984375 154.101875 -44.83984375 153.421875 C-45.74734375 153.545625 -46.65484375 153.669375 -47.58984375 153.796875 C-54.34954259 153.76939655 -60.88112913 149.87837238 -65.95703125 145.6640625 C-67.82073081 143.68439941 -69.33338921 141.6853998 -70.83984375 139.421875 C-71.40703125 138.56980469 -71.97421875 137.71773437 -72.55859375 136.83984375 C-76.51776889 130.01400171 -77.53498771 124.14002879 -77.35107422 116.38500977 C-77.33102423 110.69014446 -79.16013234 108.57192546 -82.83984375 104.421875 C-86.17925247 95.82036768 -86.84200474 82.94160869 -83.21484375 74.296875 C-81.67790592 71.43784011 -79.77042313 69.17909794 -77.65234375 66.734375 C-73.97153797 62.13336777 -74.22422944 57.52767115 -74.0234375 51.8203125 C-73.54765057 43.01319282 -69.83364045 36.76192688 -63.83984375 30.421875 C-59.11669279 26.23668911 -53.36174325 21.421875 -46.83984375 21.421875 C-46.59621094 20.70128906 -46.35257813 19.98070312 -46.1015625 19.23828125 C-42.75926152 11.77760322 -36.2028617 5.76870134 -28.83984375 2.421875 C-27.72609375 1.844375 -26.61234375 1.266875 -25.46484375 0.671875 C-17.7961552 -2.10030318 -7.93658925 -1.194929 0 0 Z " transform="translate(194.84 180.578)" class="svgShape color162b3e-3 selectable"></path><path fill="#e8f3f7" d="M0 0 C8.92293171 2.6173933 14.71612177 7.54634241 19.1875 15.5625 C22.59150665 21.26401904 25.97956034 22.65668496 32.11328125 24.75 C37.16115952 26.93582009 40.56372804 31.12745609 43 36 C43.41327799 41.43028057 43.34618473 46.01435744 41 51 C41 52.32 41 53.64 41 55 C42.39945095 55.96628756 43.80880147 56.92208235 45.26953125 57.79296875 C48.89010439 60.31837981 52.02717659 64.05435319 54 68 C54.68931768 75.34518841 54.66216888 81.98566129 50 88 C48.92510066 88.91071424 47.82055926 89.78775108 46.6875 90.625 C45.800625 91.40875 44.91375 92.1925 44 93 C44.06257477 96.19131315 44.58415277 98.16830555 46 101 C46.96465802 108.14335371 46.22932749 113.25750656 41.85546875 119.0546875 C37.79868679 123.30790311 32.53152228 126.86096369 26.51953125 127.09765625 C25.17955078 127.08025391 25.17955078 127.08025391 23.8125 127.0625 C22.46091797 127.04896484 22.46091797 127.04896484 21.08203125 127.03515625 C20.39496094 127.02355469 19.70789063 127.01195312 19 127 C18.835 127.680625 18.67 128.36125 18.5 129.0625 C15.78296206 134.38336597 10.55302175 138.75081096 5 141 C0.22566527 141.74653234 -3.16918186 141.45317353 -7.4375 139.125 C-10 137 -10 137 -12 135 C-12.24050903 132.32980347 -12.24050903 132.32980347 -12.22705078 128.89794922 C-12.22689972 127.61677216 -12.22674866 126.33559509 -12.22659302 125.01559448 C-12.21637895 123.61195726 -12.20594695 122.2083216 -12.1953125 120.8046875 C-12.19158291 119.37265215 -12.18873569 117.94061425 -12.18673706 116.50857544 C-12.17909627 112.73721283 -12.15944408 108.96600396 -12.1373291 105.19470215 C-12.11688019 101.34727051 -12.1077374 97.49981406 -12.09765625 93.65234375 C-12.0761985 86.10149236 -12.04205732 78.55076771 -12 71 C-11.18595703 70.80519043 -10.37191406 70.61038086 -9.53320312 70.40966797 C-7.92348633 70.01739014 -7.92348633 70.01739014 -6.28125 69.6171875 C-4.68893555 69.23216064 -4.68893555 69.23216064 -3.06445312 68.83935547 C3.34881399 67.08275793 8.42569394 64.82479507 12 59 C15.28719338 52.00355383 15.45462295 45.78649712 15.375 38.125 C15.38660156 36.98546875 15.39820313 35.8459375 15.41015625 34.671875 C15.40435547 33.04378906 15.40435547 33.04378906 15.3984375 31.3828125 C15.39505371 30.39684082 15.39166992 29.41086914 15.38818359 28.39501953 C15.19603271 27.20948486 15.19603271 27.20948486 15 26 C12.10420618 23.62777005 12.10420618 23.62777005 8.4375 24.25 C4.95407388 24.6858444 4.95407388 24.6858444 3 27 C2.71127738 29.34311587 2.71127738 29.34311587 2.76171875 32.05078125 C2.74560547 33.05947266 2.72949219 34.06816406 2.71289062 35.10742188 C2.69605686 37.23236158 2.69071912 39.35742558 2.69726562 41.48242188 C2.54335817 49.28205462 2.54335817 49.28205462 -0.3828125 53.1484375 C-4.46206634 56.03435738 -6.9720686 57 -12 57 C-12.07586402 49.20383922 -12.12852114 41.40777307 -12.16479492 33.61132812 C-12.17991145 30.95732059 -12.20040495 28.30333814 -12.22631836 25.64941406 C-12.26257521 21.841734 -12.27969763 18.03438325 -12.29296875 14.2265625 C-12.30845261 13.03382721 -12.32393646 11.84109192 -12.33988953 10.61221313 C-12.34011612 9.51122284 -12.34034271 8.41023254 -12.34057617 7.27587891 C-12.34723801 6.30325104 -12.35389984 5.33062317 -12.36076355 4.32852173 C-12.24171158 3.56010956 -12.12265961 2.79169739 -12 2 C-7.90611418 -0.72925721 -4.80583293 -0.60833328 0 0 Z " transform="translate(215 194)" class="svgShape colorf7f0e8-4 selectable"></path><path fill="#e7f3f7" d="M0 0 C1.32 0.66 2.64 1.32 4 2 C4 32.69 4 63.38 4 95 C-3 94 -3 94 -5.375 92.3984375 C-7.57773418 89.14728657 -7.68901251 86.5201183 -8 82.625 C-8.45977503 76.88930651 -9.42394677 73.55625686 -13 69 C-16.99920504 65.60673512 -21.52640134 65.28073812 -26.57421875 64.625 C-29 64 -29 64 -31 61 C-36.48806826 59.56735094 -36.48806826 59.56735094 -41.5 61.5 C-43.54713574 64.91189291 -43.56855139 67.09120921 -43 71 C-40.61484718 73.51928121 -39.19741785 73.97764637 -35.72265625 74.37109375 C-33.28520128 74.41531652 -30.84769869 74.45698879 -28.41015625 74.49609375 C-24.36157963 75.09433703 -22.7126424 75.94764351 -20 79 C-19.46875 81.91796875 -19.46875 81.91796875 -19.5 85.1875 C-19.19307414 92.3841036 -17.54060837 97.33030695 -12.5 102.5546875 C-9.05515967 105.35362026 -5.52712535 106.52266429 -1.2578125 107.6328125 C-0.27184082 107.8920752 0.71413086 108.15133789 1.72998047 108.41845703 C2.47908691 108.61036621 3.22819336 108.80227539 4 109 C4.14541967 113.22880411 4.23411527 117.45696413 4.3125 121.6875 C4.35439453 122.88568359 4.39628906 124.08386719 4.43945312 125.31835938 C4.56028038 133.99375597 4.56028038 133.99375597 2.93505859 136.91259766 C-0.25323282 140.16645805 -3.14713848 141.19534523 -7.5625 141.375 C-13.30804967 141.29197183 -17.59533979 139.72224807 -22 136 C-23.28515625 133.921875 -23.28515625 133.921875 -24.375 131.75 C-25.4209632 129.61843661 -25.4209632 129.61843661 -27 128 C-29.73083908 127.4030466 -32.29022184 127.37264336 -35.08203125 127.30859375 C-40.99686265 126.68306272 -45.5844113 123.39382664 -49.734375 119.28125 C-54.03287056 113.58212106 -53.89230512 106.86605308 -53 100 C-52.34 99.01 -51.68 98.02 -51 97 C-51 95.68 -51 94.36 -51 93 C-52.95890881 91.60699818 -54.9639118 90.27754554 -57 89 C-61.40239473 84.2831485 -62.48801783 78.58062401 -62.30859375 72.30078125 C-61.41030493 65.60341273 -57.77765467 61.29264869 -52.68359375 57.12890625 C-51 56 -51 56 -48 55 C-48.52268466 52.23723823 -49.10869587 49.6739124 -50 47 C-50.53337331 39.68162206 -50.05931817 34.83851964 -45.6875 28.8125 C-43.03428242 26.03587695 -41.5134976 25.24178893 -38 24 C-37.63648438 24.66386719 -37.27296875 25.32773438 -36.8984375 26.01171875 C-33.24076285 32.43609602 -29.39130359 38.53623214 -22 41 C-18.41624258 41.33354403 -18.41624258 41.33354403 -15 41 C-12.78833308 39.1773927 -12.78833308 39.1773927 -12.60546875 36.58984375 C-12.75187652 33.8762587 -12.75187652 33.8762587 -14.86328125 32.19140625 C-15.67152344 31.65386719 -16.47976562 31.11632812 -17.3125 30.5625 C-21.92170206 27.19256453 -24.35463019 24.66381821 -25.375 18.87109375 C-25.72602033 14.54915592 -25.26744246 11.69880163 -22.5625 8.25 C-16.13541014 1.79280667 -9.18607507 -1.50721439 0 0 Z " transform="translate(185 194)" class="svgShape colorf7f0e7-5 selectable"></path><path fill="#e7f1f5" d="M0 0 C3.32759923 1.55194754 5.48580485 3.30621949 8 6 C6.50819467 9.48031539 4.52572445 11.71189749 1.8449707 14.36621094 C0.55771843 15.64839508 0.55771843 15.64839508 -0.75553894 16.95648193 C-1.68570328 17.87318665 -2.61586761 18.78989136 -3.57421875 19.734375 C-4.54159274 20.69546983 -5.50844756 21.65708747 -6.47480774 22.61920166 C-9.0210013 25.15210378 -11.57269121 27.67938891 -14.1260376 30.20507812 C-18.19546343 34.23139665 -22.2583395 38.26429214 -26.31772804 42.30072784 C-27.72595009 43.69886256 -29.13779378 45.09334653 -30.54972839 46.48773193 C-31.42365738 47.35513 -32.29758636 48.22252808 -33.19799805 49.11621094 C-33.95807663 49.8680365 -34.71815521 50.61986206 -35.50126648 51.39447021 C-37.45689901 53.43368678 -39.30033033 55.49481201 -41.13777161 57.63677979 C-45.71111237 62.89962044 -50.65671984 67.78101176 -55.59765625 72.6953125 C-56.65158093 73.74731397 -57.70527518 74.79954633 -58.75875854 75.85198975 C-61.01350764 78.10359712 -63.2697959 80.3536462 -65.52731323 82.60247803 C-69.1031051 86.16465463 -72.67499662 89.73072542 -76.24633789 93.29736328 C-84.47154315 101.5105675 -92.70177088 109.71873276 -100.93205261 117.92684937 C-108.48028166 125.45485435 -116.02742426 132.98394025 -123.57051373 140.51709557 C-127.1146921 144.0563172 -130.66128794 147.59309227 -134.20980835 151.12796021 C-136.42311063 153.33375909 -138.63429953 155.54166748 -140.844944 157.7501297 C-141.86347935 158.76680642 -142.88287194 159.78262525 -143.90322495 160.79747772 C-148.97496811 165.84275781 -153.92776288 170.88196999 -158.45069885 176.43069458 C-160 178 -160 178 -164 180 C-167.465 176.535 -167.465 176.535 -171 173 C-165.94914991 166.88899833 -160.44480206 161.3321553 -154.81640625 155.75390625 C-153.83254422 154.77446182 -152.84898361 153.79471454 -151.8657074 152.81468201 C-148.24447047 149.20669717 -144.61778133 145.60420932 -140.99121094 142.00158691 C-137.91803149 138.94828232 -134.84700847 135.89283818 -131.77869987 132.8346386 C-130.35459579 131.41692443 -128.92740781 130.00231019 -127.50013733 128.58778381 C-126.17857887 127.27118019 -126.17857887 127.27118019 -124.83032227 125.92797852 C-124.06454361 125.16743668 -123.29876495 124.40689484 -122.50978088 123.62330627 C-120.5627842 121.58824072 -118.72639282 119.5331288 -116.89608765 117.39707947 C-112.13423726 111.91841037 -106.97104734 106.83916274 -101.83227539 101.71875 C-100.7177415 100.60449871 -99.6034288 99.49002613 -98.48931885 98.37535095 C-95.48586497 95.37161194 -92.47935331 92.37095095 -89.47225499 89.37086105 C-86.32210309 86.22699011 -83.17481134 83.08025847 -80.02720642 79.93383789 C-74.07602177 73.98575263 -68.12229419 68.04021957 -62.16763347 62.09561443 C-55.38447779 55.32366326 -48.60418514 48.54884859 -41.8241235 41.7737999 C-27.88591727 27.84602651 -13.94414545 13.92182702 0 0 Z " transform="translate(410 275)" class="svgShape colorf5efe7-6 selectable"></path><path fill="#16343f" d="M0 0 C2.475 0.495 2.475 0.495 5 1 C5.21914063 2.00160156 5.43828125 3.00320312 5.6640625 4.03515625 C8.01010157 14.83129036 8.01010157 14.83129036 15 23 C20.59467257 26.21957572 26.8619242 28.08457209 33 30 C32.67 31.65 32.34 33.3 32 35 C31.154375 35.20753906 30.30875 35.41507813 29.4375 35.62890625 C20.03454656 38.18266292 14.3483913 41.29415277 8.6875 49.25 C6.31165871 53.86441175 5.19853317 58.97887241 4 64 C2.35 64 0.7 64 -1 64 C-1.09796875 63.31035156 -1.1959375 62.62070313 -1.296875 61.91015625 C-3.10196605 50.2963767 -3.10196605 50.2963767 -10 41.1875 C-14.8735168 38.11622464 -20.51310814 36.61273176 -26 35 C-26.33 33.35 -26.66 31.7 -27 30 C-26.03900391 29.63648438 -26.03900391 29.63648438 -25.05859375 29.265625 C-12.98795019 24.73681897 -12.98795019 24.73681897 -5 15 C-3.08229614 10.08412003 -1.52680434 5.04819989 0 0 Z " transform="translate(436 124)" class="svgShape color162c3f-7 selectable"></path><path fill="#e7f3f8" d="M0 0 C3.11966041 1.48863736 5.24012613 3.00288692 7.671875 5.4765625 C8.33574219 6.146875 8.99960937 6.8171875 9.68359375 7.5078125 C10.70646484 8.55582031 10.70646484 8.55582031 11.75 9.625 C12.44738281 10.33140625 13.14476562 11.0378125 13.86328125 11.765625 C15.58012488 13.50598703 17.29211832 15.25084981 19 17 C17.65427113 19.99943905 16.16462899 22.08076179 13.83544922 24.39160156 C13.19493622 25.0319635 12.55442322 25.67232544 11.89450073 26.33209229 C11.20486237 27.01140808 10.515224 27.69072388 9.8046875 28.390625 C9.09724396 29.09523865 8.38980042 29.79985229 7.66091919 30.52581787 C5.40360138 32.7719539 3.13942367 35.01103009 0.875 37.25 C-0.65800953 38.77297717 -2.19056715 40.29640939 -3.72265625 41.8203125 C-7.47654573 45.55216815 -11.23608914 49.27825351 -15 53 C-18.11966041 51.51136264 -20.24012613 49.99711308 -22.671875 47.5234375 C-23.33574219 46.853125 -23.99960937 46.1828125 -24.68359375 45.4921875 C-25.36550781 44.79351562 -26.04742187 44.09484375 -26.75 43.375 C-27.44738281 42.66859375 -28.14476562 41.9621875 -28.86328125 41.234375 C-30.58012488 39.49401297 -32.29211832 37.74915019 -34 36 C-32.65427113 33.00056095 -31.16462899 30.91923821 -28.83544922 28.60839844 C-27.87467972 27.64785553 -27.87467972 27.64785553 -26.89450073 26.66790771 C-26.20486237 25.98859192 -25.515224 25.30927612 -24.8046875 24.609375 C-24.09724396 23.90476135 -23.38980042 23.20014771 -22.66091919 22.47418213 C-20.40360138 20.2280461 -18.13942367 17.98896991 -15.875 15.75 C-14.34199047 14.22702283 -12.80943285 12.70359061 -11.27734375 11.1796875 C-7.52345427 7.44783185 -3.76391086 3.72174649 0 0 Z " transform="translate(449 222)" class="svgShape colorf8f0e7-8 selectable"></path><path fill="#16343f" d="M0 0 C1.32 0 2.64 0 4 0 C4.15855469 0.76183594 4.31710937 1.52367188 4.48046875 2.30859375 C6.55296003 11.48022645 8.51935506 19.14181372 16.75 24.4375 C21.41803859 26.96777317 25.77578794 28.15738515 31 29 C30.82421875 31.37109375 30.82421875 31.37109375 30 34 C27.70703125 35.22265625 27.70703125 35.22265625 24.8125 36.0625 C17.9266533 38.29839589 11.54441406 41.34977831 8 48 C6.40597977 52.94821264 5.15387016 57.9332852 4 63 C2.35 62.67 0.7 62.34 -1 62 C-1.38091797 60.57107422 -1.38091797 60.57107422 -1.76953125 59.11328125 C-2.11371094 57.85902344 -2.45789063 56.60476562 -2.8125 55.3125 C-3.14894531 54.07113281 -3.48539062 52.82976562 -3.83203125 51.55078125 C-6.1358699 44.54680355 -9.02204194 41.93080548 -15.28125 38.359375 C-19.06953544 36.46523228 -22.92250781 35.12278771 -27 34 C-27.042721 32.33388095 -27.04063832 30.66617115 -27 29 C-25.43618083 27.43618083 -23.59849058 27.61932767 -21.4375 27.3125 C-14.52360702 25.97719878 -10.32681118 22.57835833 -5.6875 17.4375 C-3.50944182 13.00071482 -2.59001766 8.55958453 -1.61328125 3.73046875 C-1 1 -1 1 0 0 Z " transform="translate(376 76)" class="svgShape color162c3f-9 selectable"></path><path fill="#16333e" d="M0 0 C4.14822958 0.8642145 5.60540961 2.14195943 8 5.625 C8.34778507 9.27319444 7.77669333 12.39864212 5.8125 15.5 C4 16.625 4 16.625 1.3125 17.375 C-3.29159694 19.11239507 -6.6550905 22.04059817 -10 25.625 C-10.91417135 28.36751406 -11.1454946 30.13249088 -11.2109375 32.96875 C-11.23929688 33.80277344 -11.26765625 34.63679688 -11.296875 35.49609375 C-11.34895196 37.24848334 -11.39322543 39.00112224 -11.4296875 40.75390625 C-11.47609375 42.00494141 -11.47609375 42.00494141 -11.5234375 43.28125 C-11.54325684 44.04244141 -11.56307617 44.80363281 -11.58349609 45.58789062 C-12.10324783 48.12998233 -12.98292619 49.03841245 -15 50.625 C-17.84667807 51.1999726 -20.04838397 50.90610629 -23 50.625 C-25.87497116 46.31254327 -25.32988239 42.50968263 -25.3125 37.4375 C-25.32861328 36.51646484 -25.34472656 35.59542969 -25.36132812 34.64648438 C-25.36628779 27.65831959 -24.59120456 21.95654872 -20.16796875 16.26953125 C-19.51441406 15.66496094 -18.86085937 15.06039063 -18.1875 14.4375 C-17.48367187 13.7775 -16.77984375 13.1175 -16.0546875 12.4375 C-13.41379852 10.10789451 -10.72019803 7.86160727 -8 5.625 C-6.7625 4.2328125 -6.7625 4.2328125 -5.5 2.8125 C-3 0.625 -3 0.625 0 0 Z " transform="translate(245 266.375)" class="svgShape color162b3e-10 selectable"></path><path fill="#dde3e5" d="M0 0 C5.61 0 11.22 0 17 0 C15.39626375 3.2074725 14.62383985 4.61979844 12.21484375 6.9453125 C11.41916992 7.72455078 11.41916992 7.72455078 10.60742188 8.51953125 C10.05634766 9.04933594 9.50527344 9.57914062 8.9375 10.125 C4.9955106 13.69553366 4.9955106 13.69553366 2 18 C1.34 18 0.68 18 0 18 C0 12.06 0 6.12 0 0 Z " transform="translate(322 324)" class="svgShape colore5e1dd-11 selectable"></path><path fill="#e9f1f4" d="M0 0 C5.28 0 10.56 0 16 0 C11.31645873 5.64426769 6.3792354 11.0058046 1 16 C0.67 16 0.34 16 0 16 C0 10.72 0 5.44 0 0 Z " transform="translate(261 388)" class="svgShape colorf4efe9-12 selectable"></path><path fill="#e1e6e8" d="M0 0 C0.33 0.66 0.66 1.32 1 2 C0.04882866 3.1725131 -0.91117009 4.33787015 -1.875 5.5 C-2.67550781 6.47453125 -2.67550781 6.47453125 -3.4921875 7.46875 C-3.98976563 7.9740625 -4.48734375 8.479375 -5 9 C-5.66 9 -6.32 9 -7 9 C-7.268125 9.639375 -7.53625 10.27875 -7.8125 10.9375 C-9 13 -9 13 -12 14 C-12.69800304 15.31719929 -13.36059748 16.65337955 -14 18 C-15.65625 19.921875 -15.65625 19.921875 -17.5 21.75 C-18.41265625 22.67039063 -18.41265625 22.67039063 -19.34375 23.609375 C-21 25 -21 25 -23 25 C-23.33 25.99 -23.66 26.98 -24 28 C-24 24 -24 24 -21.796875 21.34277344 C-20.79145771 20.33798832 -19.77505493 19.34411834 -18.75 18.359375 C-17.95094238 17.56880707 -17.95094238 17.56880707 -17.13574219 16.76226807 C-15.43298606 15.08189366 -13.71685057 13.41595959 -12 11.75 C-10.84284093 10.61290353 -9.68657927 9.47489306 -8.53125 8.3359375 C-5.6978023 5.54658087 -2.85227568 2.77009576 0 0 Z " transform="translate(440 231)" class="svgShape colore8e5e1-13 selectable"></path><path fill="#d6d9da" d="M0 0 C0 0.33 0 0.66 0 1 C-0.825 1.185625 -1.65 1.37125 -2.5 1.5625 C-9.56321673 4.46346402 -14.40357692 10.27334421 -19.2578125 16 C-22.0109226 19.16052101 -24.99681426 22.07896828 -28 25 C-28.66 24.67 -29.32 24.34 -30 24 C-23.05613577 14.99869452 -23.05613577 14.99869452 -18.8125 12.9375 C-16.42469435 11.70242811 -16.16389103 10.39624623 -15 8 C-12.625 5.4375 -12.625 5.4375 -10 3 C-9.360625 2.401875 -8.72125 1.80375 -8.0625 1.1875 C-5.29634792 -0.40513301 -3.13402799 -0.21368373 0 0 Z " transform="translate(435 292)" class="svgShape colordad9d6-14 selectable"></path><path fill="#87ddfd" d="M0 0 C0.66 0 1.32 0 2 0 C3.11984119 3.35952356 3.028066 5.66910457 2.87890625 9.19921875 C2.83056641 10.40771484 2.78222656 11.61621094 2.73242188 12.86132812 C2.67634766 14.12396484 2.62027344 15.38660156 2.5625 16.6875 C2.51029297 17.96173828 2.45808594 19.23597656 2.40429688 20.54882812 C2.27449691 23.69942725 2.13788997 26.84974458 2 30 C8.93 30 15.86 30 23 30 C23 30.33 23 30.66 23 31 C15.74 31 8.48 31 1 31 C0.67 20.77 0.34 10.54 0 0 Z " transform="translate(321 168)" class="svgShape colorc0c1c3-15 selectable"></path><path fill="#e0e5e7" d="M0 0 C0.33 0.99 0.66 1.98 1 3 C-6.29840547 10.48291572 -6.29840547 10.48291572 -10 13 C-10.66 12.67 -11.32 12.34 -12 12 C-8.04 8.04 -4.08 4.08 0 0 Z " transform="translate(347 374)" class="svgShape colore7e3e0-16 selectable"></path><path fill="#1f2f35" d="M0 0 C0.886875 0.103125 1.77375 0.20625 2.6875 0.3125 C2.6875 0.6425 2.6875 0.9725 2.6875 1.3125 C1.800625 1.539375 0.91375 1.76625 0 2 C-3.79295988 3.50287089 -5.60048093 5.30728968 -8.3125 8.3125 C-9.3125 9.3125 -10.3125 10.3125 -11.3125 11.3125 C-12.3025 10.9825 -13.2925 10.6525 -14.3125 10.3125 C-13.425625 9.590625 -12.53875 8.86875 -11.625 8.125 C-9.44239656 6.33598079 -7.70926379 4.63385927 -5.8125 2.5 C-3.3125 0.3125 -3.3125 0.3125 0 0 Z " transform="translate(245.313 266.688)" class="svgShape color1f2935-17 selectable"></path><path fill="#d5d8d9" d="M0 0 C1.19126781 3.57380342 0.7349445 5.50883302 0.0625 9.1875 C-0.13214844 10.27417969 -0.32679688 11.36085938 -0.52734375 12.48046875 C-0.68332031 13.31191406 -0.83929688 14.14335937 -1 15 C-1.33 15 -1.66 15 -2 15 C-2.25002209 13.25285767 -2.47423194 11.50200859 -2.6875 9.75 C-2.81511719 8.77546875 -2.94273437 7.8009375 -3.07421875 6.796875 C-2.9871902 3.51727269 -2.19219402 2.36689329 0 0 Z " transform="translate(277 288)" class="svgShape colord9d7d5-18 selectable"></path><path fill="#e1e6e8" d="M0 0 C0 0.33 0 0.66 0 1 C-0.845625 1.20625 -1.69125 1.4125 -2.5625 1.625 C-6.84653389 3.33861355 -9.67242567 5.86932356 -13 9 C-10.91376881 2.17233428 -7.1449644 -0.66464785 0 0 Z " transform="translate(435 292)" class="svgShape colore8e5e1-19 selectable"></path><path fill="#259dc9" d="M0 0 C0 0.99 0 1.98 0 3 C-0.66 2.67 -1.32 2.34 -2 2 C-4.3329866 1.95977609 -6.66706666 1.95679753 -9 2 C-9.33 2.66 -9.66 3.32 -10 4 C-10.66 4 -11.32 4 -12 4 C-9.17895868 -2.24659149 -6.16171872 -0.89444304 0 0 Z " transform="translate(154 254)" class="svgShape color38404b-20 selectable"></path><path fill="#2b3f46" d="M0 0 C0.99 0.33 1.98 0.66 3 1 C0.36 3.64 -2.28 6.28 -5 9 C-5.66 8.67 -6.32 8.34 -7 8 C-5.625 6 -5.625 6 -4 4 C-3.34 4 -2.68 4 -2 4 C-1.34 2.68 -0.68 1.36 0 0 Z " transform="translate(425 225)" class="svgShape color2b3946-21 selectable"></path><path fill="#e0e4e6" d="M0 0 C0 3 0 3 -1.2421875 4.60546875 C-1.78101563 5.12753906 -2.31984375 5.64960938 -2.875 6.1875 C-3.40867188 6.71730469 -3.94234375 7.24710937 -4.4921875 7.79296875 C-6 9 -6 9 -8 9 C-6.4169423 4.7257442 -3.49431596 2.73468206 0 0 Z " transform="translate(242 285)" class="svgShape colore6e3e0-22 selectable"></path><path fill="#d8dadb" d="M0 0 C0 0.66 0 1.32 0 2 C-3.96 3.98 -3.96 3.98 -8 6 C-8.99 5.34 -9.98 4.68 -11 4 C-9.73308493 3.32591692 -8.46129251 2.66099503 -7.1875 2 C-6.47980469 1.62875 -5.77210938 1.2575 -5.04296875 0.875 C-3 0 -3 0 0 0 Z " transform="translate(198 342)" class="svgShape colordbdad8-23 selectable"></path><path fill="#293a40" d="M0 0 C0 0.99 0 1.98 0 3 C-0.66 2.67 -1.32 2.34 -2 2 C-3.99954746 1.95745644 -6.00041636 1.95919217 -8 2 C-8.99 2 -9.98 2 -11 2 C-7.374967 -1.625033 -4.81746234 -1.01907857 0 0 Z " transform="translate(229 218)" class="svgShape color293340-24 selectable"></path><path fill="#354449" d="M0 0 C0.66 0.33 1.32 0.66 2 1 C-3 7.57142857 -3 7.57142857 -8 9 C-7.04270084 7.87411986 -6.08412105 6.7493285 -5.125 5.625 C-4.59132813 4.99851563 -4.05765625 4.37203125 -3.5078125 3.7265625 C-2.38567993 2.44163349 -1.20628025 1.20628025 0 0 Z " transform="translate(442 208)" class="svgShape color353f49-25 selectable"></path><path fill="#182d35" d="M0 0 C0.33 1.32 0.66 2.64 1 4 C1.66 4 2.32 4 3 4 C3.33 3.01 3.66 2.02 4 1 C4.33 2.98 4.66 4.96 5 7 C3.35 6.67 1.7 6.34 0 6 C0 4.02 0 2.04 0 0 Z " transform="translate(375 132)" class="svgShape color182635-26 selectable"></path><path fill="#d8d9da" d="M0 0 C0.66 0.66 1.32 1.32 2 2 C-1.99613521 5.71069698 -4.37082652 7.59791618 -10 8 C-7 6 -7 6 -4.4375 4.5625 C-1.76176498 3.0772081 -1.76176498 3.0772081 0 0 Z " transform="translate(225 255)" class="svgShape colordad9d8-27 selectable"></path><path fill="#dce2e4" d="M0 0 C0.66 0 1.32 0 2 0 C2.96070434 2.88211302 3.10581883 4.69850044 3.0625 7.6875 C3.05347656 8.49574219 3.04445313 9.30398437 3.03515625 10.13671875 C3.02355469 10.75160156 3.01195312 11.36648437 3 12 C2.67 12 2.34 12 2 12 C0.70756464 7.8803623 -0.26252625 4.33168317 0 0 Z " transform="translate(321 168)" class="svgShape colore4e0dc-28 selectable"></path><path fill="#0f262e" d="M0 0 C0 3 0 3 -2.5 5.6875 C-3.325 6.450625 -4.15 7.21375 -5 8 C-5 5 -5 5 -2.5 2.3125 C-1.675 1.549375 -0.85 0.78625 0 0 Z " transform="translate(440 268)" class="svgShape color0f1d2e-29 selectable"></path><path fill="#1b2d34" d="M0 0 C3.125 -0.1875 3.125 -0.1875 6 0 C6.33 0.66 6.66 1.32 7 2 C2.545 2.495 2.545 2.495 -2 3 C-1.34 2.01 -0.68 1.02 0 0 Z " transform="translate(136 111)" class="svgShape color1b2634-30 selectable"></path></svg></g></svg>